<?xml version="1.0" encoding="utf-8"?>
<svg viewBox="166.742 142.691 116.471 63.854" xmlns="http://www.w3.org/2000/svg">
  <defs>
    <radialGradient id="radial-gradient" cx="-160.71" cy="416.47" r="2.71" gradientTransform="matrix(31.48, 0, 0, -31.48, 5653.919684, 13359.792835)" gradientUnits="userSpaceOnUse">
      <stop offset="0.06" stop-color="#fff"/>
      <stop offset="0.08" stop-color="#cbffff"/>
      <stop offset="0.1" stop-color="#96ffff"/>
      <stop offset="0.12" stop-color="#68ffff"/>
      <stop offset="0.14" stop-color="#43ffff"/>
      <stop offset="0.17" stop-color="#25ffff"/>
      <stop offset="0.19" stop-color="#1ff"/>
      <stop offset="0.21" stop-color="#04ffff"/>
      <stop offset="0.23" stop-color="aqua"/>
      <stop offset="1" stop-color="blue" stop-opacity="0"/>
    </radialGradient>
  </defs>
  <g transform="matrix(1, 0, 0, 1, -322.23618, -75.376886)">
    <path d="M 605.45 260.582 L 605.45 262.072 C 605.45 262.393 605.19 262.652 604.87 262.652 L 597.8 262.652 C 597.8 263.022 597.8 263.342 597.8 263.652 C 597.811 265.656 597.711 267.66 597.5 269.652 C 597.469 269.951 597.22 270.179 596.92 270.182 L 595.39 270.182 C 595.086 270.177 594.844 269.926 594.85 269.622 C 595.068 267.66 595.171 265.687 595.16 263.712 C 595.16 263.402 595.16 263.072 595.16 262.712 L 588.16 262.712 C 587.84 262.712 587.58 262.453 587.58 262.132 L 587.58 260.582 C 587.574 260.264 587.831 260.002 588.15 260.002 L 595.05 260.002 C 594.908 257.614 594.601 255.238 594.13 252.892 C 594.081 252.631 594.249 252.378 594.51 252.322 L 596.27 252.322 C 596.527 252.324 596.746 252.509 596.79 252.762 C 597.25 255.157 597.551 257.579 597.69 260.012 L 604.86 260.012 C 605.18 260.007 605.444 260.262 605.45 260.582 Z" fill="#fff" fill-rule="evenodd"/>
    <path d="M 511.74 241.042 Z M 511.27 241.092 C 511.088 241.086 510.909 241.049 510.74 240.982 C 510.911 241.068 511.099 241.112 511.29 241.112 L 511.43 241.112 L 511.27 241.092 Z M 511.27 241.092 C 511.088 241.086 510.909 241.049 510.74 240.982 C 510.911 241.068 511.099 241.112 511.29 241.112 L 511.43 241.112 L 511.27 241.092 Z" fill="none"/>
    <path d="M 595.83 248.812 C 581.485 213.619 534.421 207.152 511.115 237.172 C 510.389 238.107 509.697 239.068 509.04 240.052 C 508.938 240.202 508.912 240.391 508.97 240.562 C 509.028 240.734 509.16 240.87 509.33 240.932 L 510.62 241.362 C 510.925 241.462 511.26 241.348 511.44 241.082 C 531.668 211.308 576.542 214.596 592.214 247.001 C 592.554 247.703 592.876 248.414 593.18 249.132 C 593.284 249.384 593.528 249.549 593.8 249.552 L 595.33 249.552 C 595.628 249.552 595.87 249.311 595.87 249.012 C 595.879 248.946 595.879 248.879 595.87 248.812 L 595.83 248.812 Z M 510.83 241.002 C 510.794 241.012 510.756 241.012 510.72 241.002 L 510.82 241.002 L 510.83 241.002 Z" fill="url(#radial-gradient)"/>
    <path d="M 527.7 251.012 C 527.7 251.012 528.07 250.462 528.38 250.012 C 529.078 249.112 529.862 248.282 530.72 247.532 L 531.23 247.112 C 531.23 247.112 530.8 247.112 530.56 247.202 C 529.878 247.404 529.244 247.744 528.7 248.202 C 528 248.802 527.23 249.782 527.58 250.652 L 527.7 250.942 L 527.7 251.012 Z M 531.6 252.062 C 532.695 251.982 533.759 251.665 534.72 251.132 C 535.72 250.602 537.07 249.562 536.92 248.352 C 536.882 247.98 536.639 247.659 536.29 247.522 C 535.914 247.356 535.486 247.356 535.11 247.522 C 534.779 247.61 534.462 247.745 534.17 247.922 C 532.855 248.747 531.683 249.781 530.7 250.982 C 530.51 251.232 530.31 251.522 530.16 251.712 C 530.01 251.902 529.99 251.942 530 251.972 C 530.525 252.087 531.066 252.114 531.6 252.052 L 531.6 252.062 Z M 528.78 254.122 C 528.648 254.325 528.528 254.536 528.42 254.752 C 528.349 254.871 528.258 254.976 528.15 255.062 C 527.923 255.289 527.556 255.289 527.33 255.062 C 526.942 254.698 526.715 254.194 526.7 253.662 C 526.72 253.44 526.72 253.215 526.7 252.992 C 526.557 252.634 526.365 252.298 526.13 251.992 C 525.911 251.552 525.779 251.073 525.74 250.582 C 525.75 249.301 526.284 248.079 527.22 247.202 C 528.146 246.236 529.263 245.473 530.5 244.962 C 531.819 244.36 533.303 244.223 534.71 244.572 C 535.216 244.752 535.667 245.058 536.02 245.462 C 536.072 245.536 536.132 245.603 536.2 245.662 C 536.306 245.7 536.417 245.724 536.53 245.732 C 536.988 245.839 537.418 246.044 537.79 246.332 C 538.24 246.684 538.551 247.184 538.67 247.742 C 538.805 248.959 538.356 250.168 537.46 251.002 C 536.261 252.312 534.785 253.337 533.14 254.002 C 532.265 254.347 531.33 254.513 530.39 254.492 C 530.13 254.492 529.86 254.402 529.6 254.382 C 529.375 254.345 529.155 254.288 528.94 254.212 C 528.88 254.162 528.81 254.122 528.78 254.142 L 528.78 254.122 Z M 530.29 256.742 C 530.359 256.752 530.427 256.772 530.49 256.802 C 531.04 257.058 531.418 257.58 531.49 258.182 C 531.798 260.085 531.975 262.006 532.02 263.932 C 532.02 264.842 532.08 265.732 532.12 266.632 C 532.192 267.462 532.169 268.298 532.05 269.122 C 531.989 269.41 531.821 269.664 531.58 269.832 C 531.175 269.999 530.729 270.041 530.3 269.952 C 529.43 269.772 529.15 269.212 529.02 268.352 C 528.789 265.764 528.789 263.161 529.02 260.572 C 529.123 259.51 529.324 258.458 529.62 257.432 C 529.72 257.172 529.93 256.662 530.31 256.742 L 530.29 256.742 Z M 503.48 259.822 C 503.48 259.822 502.2 259.912 501.31 260.012 C 499.794 260.179 498.298 260.487 496.84 260.932 C 496.48 261.072 495.73 261.372 495.66 261.752 C 495.656 262.136 495.821 262.501 496.11 262.752 C 496.27 262.942 497.11 263.752 497.4 264.002 C 498.84 265.141 500.415 266.099 502.09 266.852 C 502.62 267.072 503.5 267.382 503.5 267.382 C 503.5 267.382 503.44 264.882 503.5 262.382 C 503.5 261.072 503.5 259.782 503.5 259.782 L 503.48 259.822 Z M 527.1 260.822 C 527.124 261.532 527.08 262.242 526.97 262.942 C 526.872 263.412 526.738 263.873 526.57 264.322 C 526.357 264.814 526.12 265.295 525.86 265.762 C 525.306 266.674 524.633 267.508 523.86 268.242 C 521.362 270.136 518.389 271.303 515.27 271.612 C 513.135 271.865 510.976 271.801 508.86 271.422 L 507.05 271.042 C 507.063 271.289 507.063 271.536 507.05 271.782 C 507.015 271.996 506.954 272.204 506.87 272.402 C 506.722 272.703 506.433 272.91 506.1 272.952 C 505.648 273.083 505.168 273.077 504.72 272.932 C 504.113 272.609 503.73 271.98 503.72 271.292 C 503.62 270.712 503.52 269.702 503.52 269.702 L 502.62 269.212 C 501.361 268.589 500.16 267.857 499.03 267.022 C 498.4 266.522 497.78 266.022 497.18 265.462 C 496.39 264.754 495.716 263.928 495.18 263.012 C 494.746 262.361 494.664 261.537 494.96 260.812 C 495.4 259.712 496.96 258.882 498.07 258.412 C 499.459 257.852 500.894 257.413 502.36 257.102 C 502.84 257.032 503.59 256.902 503.64 256.872 C 503.64 256.872 503.7 255.742 503.64 255.352 C 503.58 254.962 503.93 252.352 504.03 251.832 C 504.114 251.235 504.282 250.653 504.53 250.102 C 504.693 249.921 504.97 249.899 505.16 250.052 C 506.33 250.782 506.69 253.322 506.78 254.612 C 506.78 255.392 506.86 256.612 506.86 256.612 C 506.86 256.612 508.21 256.612 509.04 256.612 C 509.888 256.652 510.733 256.742 511.57 256.882 C 513.074 257.11 514.543 257.53 515.94 258.132 C 516.922 258.584 517.707 259.376 518.15 260.362 C 518.437 261.058 518.366 261.849 517.96 262.482 C 517.473 263.3 516.627 263.838 515.68 263.932 C 515.122 263.931 514.572 263.805 514.07 263.562 C 513.959 263.456 513.959 263.279 514.07 263.172 C 514.07 263.172 514.58 262.882 514.86 262.732 C 514.995 262.663 515.119 262.576 515.23 262.472 C 515.47 262.262 515.68 262.032 515.66 261.772 C 515.64 261.512 515.26 261.222 514.91 261.082 C 512.806 260.395 510.627 259.962 508.42 259.792 L 506.92 259.732 L 507.11 268.452 L 508.41 268.682 C 508.73 268.732 510.13 268.852 510.5 268.862 C 513.419 269.053 516.344 268.574 519.05 267.462 C 520.184 266.977 521.205 266.262 522.05 265.362 C 523.12 264.112 523.639 262.482 523.49 260.842 C 523.129 258.852 522.261 256.989 520.97 255.432 C 518.21 251.882 513.47 248.952 509.31 247.242 C 505.188 245.495 500.784 244.506 496.31 244.322 C 494.635 244.255 492.957 244.379 491.31 244.692 L 490.77 244.842 C 490.629 244.878 490.494 244.936 490.37 245.012 L 490.31 245.072 C 490.357 245.105 490.407 245.132 490.46 245.152 C 490.6 245.212 491.17 245.242 491.46 245.302 C 491.718 245.34 491.951 245.476 492.11 245.682 C 492.224 245.822 492.224 246.023 492.11 246.162 C 491.81 246.522 490.73 246.462 490.24 246.382 C 489.75 246.302 489.12 246.152 489 245.712 C 488.923 245.19 489.056 244.658 489.37 244.232 C 489.888 243.343 490.761 242.717 491.77 242.512 C 493.425 242.074 495.12 241.81 496.83 241.722 C 500.15 241.64 503.46 242.12 506.62 243.142 C 508.71 243.79 510.752 244.586 512.73 245.522 C 514.26 246.272 515.749 247.103 517.19 248.012 C 517.55 248.242 519.65 249.782 519.98 250.062 C 520.66 250.612 521.55 251.412 522.19 252.062 C 523.582 253.434 524.776 254.992 525.74 256.692 C 525.92 257.052 526.06 257.402 526.29 257.822 C 526.479 258.224 526.64 258.638 526.77 259.062 C 526.83 259.312 526.91 259.672 526.92 259.682 C 527.013 260.06 527.07 260.445 527.09 260.832 L 527.1 260.822 Z M 541.62 261.452 L 541.76 261.452 C 542.725 261.552 543.673 261.777 544.58 262.122 C 545.247 262.398 545.789 262.911 546.1 263.562 C 547.253 265.68 546.323 268.33 544.1 269.262 C 543.317 269.625 542.479 269.851 541.62 269.932 C 539.962 270.091 538.291 269.794 536.79 269.072 C 535.79 268.625 534.94 267.899 534.34 266.982 C 533.921 266.29 533.961 265.414 534.44 264.762 C 535.19 263.762 536.82 263.492 538.04 263.532 C 539.227 263.609 540.402 263.824 541.54 264.172 C 541.998 264.325 542.438 264.53 542.85 264.782 C 542.973 264.885 543.027 265.047 542.99 265.202 C 542.79 265.822 541.28 266.152 540.85 266.202 C 539.69 266.382 539.08 265.942 537.76 265.422 C 537.405 265.274 537.032 265.173 536.65 265.122 C 536.05 265.062 535.33 265.232 535.21 265.882 C 535.21 266.222 535.55 266.542 535.85 266.672 C 536.478 266.956 537.161 267.1 537.85 267.092 C 539.98 267.234 542.101 266.71 543.92 265.592 C 544.179 265.445 544.351 265.18 544.38 264.882 C 544.38 264.882 544.38 264.522 544.22 264.482 C 544.22 264.482 544.12 264.362 544.06 264.302 C 543.846 264.132 543.606 263.997 543.35 263.902 C 541.953 263.453 540.505 263.184 539.04 263.102 C 537.9 263.002 536.11 262.862 535.69 262.792 C 535.241 262.746 534.8 262.639 534.38 262.472 C 533.958 262.28 533.637 261.916 533.5 261.472 C 533.346 260.655 533.522 259.81 533.99 259.122 C 535.12 257.502 537.76 256.892 539.73 256.642 C 541.7 256.392 544.73 256.402 546.6 257.402 C 546.89 257.552 547.04 257.702 546.98 258.012 C 546.849 258.557 546.431 258.987 545.89 259.132 C 545.163 259.288 544.423 259.379 543.68 259.402 C 541.281 259.386 538.886 259.604 536.53 260.052 C 536.334 260.095 536.148 260.173 535.98 260.282 C 535.64 260.652 536.61 260.752 536.81 260.802 L 536.95 260.802 L 541.71 261.362 L 541.62 261.452 Z M 548.67 269.932 C 547.76 269.602 547.55 268.132 547.51 267.382 C 547.469 264.636 547.912 261.905 548.82 259.312 C 549.05 258.662 549.39 257.602 550.11 257.662 C 550.595 257.755 551.013 258.059 551.25 258.492 C 552.02 259.582 552.78 260.692 553.53 261.812 C 554.28 262.932 554.89 263.952 555.53 264.922 C 555.596 265.038 555.681 265.143 555.78 265.232 C 555.9 265.332 556.01 265.332 556.05 265.232 C 556.077 264.729 556.077 264.225 556.05 263.722 C 556 263.332 555.98 263.022 555.93 262.722 C 555.767 261.614 555.544 260.516 555.26 259.432 C 554.98 258.432 554.65 257.302 554.41 256.292 C 554.319 255.967 554.268 255.631 554.26 255.292 C 554.191 254.906 554.566 254.589 554.935 254.723 C 554.964 254.733 554.993 254.747 555.02 254.762 C 555.95 255.092 557.18 257.112 557.54 257.762 C 557.66 257.992 558.14 259.192 558.26 259.532 C 558.64 260.669 558.882 261.848 558.98 263.042 C 559.122 264.462 558.952 265.896 558.48 267.242 C 558.259 267.74 557.951 268.194 557.57 268.582 C 556.981 269.153 556.114 269.329 555.35 269.032 C 554.449 268.16 553.696 267.146 553.12 266.032 C 552.39 264.762 551.12 262.272 550.95 262.032 C 550.9 261.964 550.83 261.912 550.75 261.882 C 550.68 261.882 550.65 262.012 550.63 262.112 C 550.5 262.842 550.42 266.222 550.42 266.322 C 550.416 267.21 550.343 268.096 550.2 268.972 C 550.1 269.422 549.99 269.792 549.57 269.972 C 549.286 270.087 548.965 270.065 548.7 269.912 L 548.67 269.932 Z M 561.25 269.492 C 561.119 269.38 560.996 269.26 560.88 269.132 C 560.73 268.917 560.593 268.694 560.47 268.462 C 560.41 268.332 560.37 268.242 560.33 268.132 C 560.056 267.376 560.011 266.555 560.2 265.772 C 560.374 265.13 560.605 264.504 560.89 263.902 C 560.9 263.846 560.9 263.789 560.89 263.732 C 560.89 263.582 560.67 262.612 560.66 262.292 C 560.66 261.812 561.01 261.472 561.66 261.412 L 561.79 261.412 C 562.04 261.352 562.21 260.872 562.34 260.492 L 562.82 259.142 C 562.41 259.042 562.01 258.932 561.61 258.802 C 561.181 258.661 560.823 258.36 560.61 257.962 C 560.36 257.452 560.53 257.172 561.06 257.012 C 561.25 256.942 562.78 256.652 563.26 256.582 L 565.01 256.352 C 565.51 256.292 567.79 256.022 568.52 256.042 C 569.542 256.043 570.487 256.588 571 257.472 C 571.35 257.972 571.59 258.572 571.06 258.892 C 570.25 259.382 567.63 259.422 567.15 259.422 L 565.32 259.422 L 564.79 261.212 L 567.72 261.212 C 567.938 261.209 568.155 261.226 568.37 261.262 C 568.91 261.382 569.1 261.792 569.12 262.392 C 569.14 262.992 569.02 263.392 568.46 263.492 C 568.18 263.542 564.95 263.562 564.46 263.612 L 563.9 263.682 C 563.9 263.682 563.67 264.292 563.47 264.912 C 563.27 265.532 563.09 266.202 563.09 266.202 L 563.39 266.202 C 563.602 266.199 563.813 266.175 564.02 266.132 C 565.02 265.962 566.47 265.742 567.67 265.552 C 568.32 265.452 568.67 265.402 568.98 265.832 C 569.269 266.147 569.436 266.555 569.45 266.982 C 569.45 267.412 569.14 267.692 568.74 267.982 C 567.265 269.09 565.554 269.843 563.74 270.182 C 563.204 270.255 562.658 270.197 562.15 270.012 C 561.951 269.943 561.76 269.852 561.58 269.742 C 561.58 269.742 561.34 269.602 561.25 269.532 L 561.25 269.492 Z M 581.62 260.722 C 580.718 261.585 579.911 262.54 579.21 263.572 C 578.52 264.572 577.88 265.672 577.21 266.572 C 577.021 266.87 576.847 267.177 576.69 267.492 C 576.967 267.55 577.253 267.55 577.53 267.492 C 578.511 267.267 579.435 266.838 580.24 266.232 C 581.227 265.445 581.93 264.357 582.24 263.132 C 582.448 262.374 582.38 261.566 582.05 260.852 C 581.94 260.721 581.746 260.699 581.61 260.802 L 581.62 260.722 Z M 575.02 270.722 C 575.02 270.722 574.76 271.492 574.57 272.102 C 574.23 273.102 573.5 275.962 573.32 276.832 C 573.07 278.132 572.32 281.542 572.32 281.612 C 572.278 281.703 572.208 281.776 572.12 281.822 C 571.82 281.992 571.7 281.932 571.33 281.742 C 570.846 281.507 570.422 281.165 570.09 280.742 C 569.38 279.822 569.55 278.082 569.69 277.062 C 570.058 274.077 570.846 271.158 572.03 268.392 C 572.05 268.351 572.05 268.304 572.03 268.262 C 571.611 267.367 571.389 266.391 571.38 265.402 C 571.38 262.622 572.98 259.882 574.77 257.672 C 574.9 257.502 575.77 256.452 576.18 256.472 C 576.59 256.492 576.65 256.962 576.59 257.352 C 576.228 258.666 575.643 259.907 574.86 261.022 C 574.337 261.903 573.94 262.852 573.68 263.842 C 573.592 264.198 573.528 264.559 573.49 264.922 C 573.49 265.222 573.57 265.602 573.57 265.602 C 573.57 265.602 574.7 264.012 575.45 263.042 C 575.85 262.512 576.15 262.152 576.45 261.772 C 577.11 261.042 577.8 260.332 578.45 259.642 C 579.027 259.025 579.703 258.508 580.45 258.112 C 581.053 257.7 581.847 257.7 582.45 258.112 C 583.452 258.95 584.049 260.177 584.09 261.482 C 584.219 262.947 583.949 264.419 583.31 265.742 C 582.583 267.146 581.491 268.327 580.15 269.162 C 578.765 270.137 577.122 270.676 575.43 270.712 L 574.95 270.712 L 575.02 270.722 Z" fill="#fff"/>
  </g>
</svg>